<?xml version="1.0" encoding="utf-8"?>
<!-- Generator: Adobe Illustrator 22.1.0, SVG Export Plug-In . SVG Version: 6.00 Build 0)  -->
<svg version="1.1" id="Layer_1" xmlns="http://www.w3.org/2000/svg" xmlns:xlink="http://www.w3.org/1999/xlink" x="0px" y="0px"
	 viewBox="0 0 160 100" style="enable-background:new 0 0 160 100;" xml:space="preserve">
<style type="text/css">
	.st0{fill:#26422F;}
	.st1{fill:#B9D0B4;}
	.st2{fill:#EE7249;}
	.st3{fill:#FFFFFF;}
</style>
<g>
	<g>
		<g>
			<circle class="st0" cx="42.9" cy="50.2" r="36.9"/>
		</g>
		<g>
			<circle class="st1" cx="118" cy="50.2" r="36.9"/>
		</g>
		<g>
			<circle class="st2" cx="80.4" cy="50.2" r="42.3"/>
		</g>
	</g>
	<g>
		<g>
			<path class="st3" d="M37.7,50.1v-3v-4.7v-2.1v-1.3c0-0.7,0.2-1,0.7-1c0.2,0,0.4,0.1,0.6,0.2c0.1,0.1,0.1,0.4,0.1,0.9v0.2
				c0,0.2,0,0.7,0,1.2l-0.1,6V52v5.8l0.1,5.8c-2.5-1.6-6-3.7-10.7-6.4c-4.7-2.7-8.5-4.8-11.4-6.4v0.9l0.2,9.2v1.2
				c0,0.6-0.2,0.8-0.7,0.8c-0.4,0-0.8-0.3-0.8-0.9v-1.2v-2l0.1-9.2l-0.1-12.3C20.4,40.2,27.7,44.6,37.7,50.1z"/>
			<path class="st3" d="M53.6,38.3l-0.1,9.2v9.6V62c0.6,0,1.1,0.1,1.6,0.1c4.1,0,6.9-1,8.4-2.9c0.7-1,1.2-2.5,1.5-4.3
				c0.2-1.8,0.3-5.1,0.3-10v-4.7l-0.1-1.5c0-0.7,0.2-0.9,0.8-0.9c0.4,0,0.7,0.3,0.7,0.9c0,0.3,0,0.8,0,1.5l-0.1,7.1c0,3-0.1,5-0.1,6
				c-0.1,1.1-0.2,2.1-0.3,3c-0.3,1.9-1.2,3.5-2.6,4.6c-1.7,1.5-4.6,2.2-8.7,2.2c-3.6,0-6.4-0.4-8.2-1.5c-1.5-0.8-2.5-2-3-3.8
				c-0.2-0.8-0.4-1.7-0.4-2.6S43,52,43,47.5l-0.1-9.3h10.7V38.3z"/>
			<path class="st3" d="M81.4,36.9l14.2,25.7H83.3l-1.7-3.2h-5.9h-5.3h-0.9l-1.1,2.1c-0.3,0.7-0.6,1-0.7,1.2
				c-0.1,0.1-0.3,0.2-0.6,0.2c-0.4,0-0.6-0.2-0.6-0.6c0-0.1,0.1-0.4,0.3-0.9c0.2-0.4,1-1.8,2.5-4.1l10.7-18.1L81.4,36.9z M75.9,48.5
				l-3.1,5.3L70.3,58l5.3,0.1l5.4-0.1L75.9,48.5z"/>
			<path class="st3" d="M120.1,50.3c-0.1,3.5-1.2,6.5-3.4,8.8c-1.2,1.3-2.7,2.4-4.4,3c-1.7,0.8-3.5,1.1-5.3,1.1
				c-1.6,0-3.1-0.3-4.6-0.9c-1.6-0.6-2.9-1.5-4-2.5c-1.5-1.3-2.6-3-3.4-4.9c-0.6-1.6-0.9-3-0.9-4.6c0-2.8,0.9-5.4,2.6-7.7
				c1.2-1.6,2.7-2.8,4.5-3.8c1.8-0.9,3.7-1.3,5.7-1.3c3.5,0,6.5,1.2,9.1,3.6c1.1,1.1,1.7,1.8,1.7,2.2c0,0.1-0.1,0.3-0.2,0.3
				c-0.1,0.1-0.2,0.1-0.4,0.1c-0.2,0-0.6-0.2-0.9-0.7c-2.4-3.1-5.5-4.7-9.2-4.7c-0.4,0-0.9,0-1.3,0.1l-0.1,12.6l0.1,10.7
				c0.4,0.1,0.9,0.1,1.3,0.1c1.3,0,2.7-0.2,3.9-0.7c3.1-1.1,5.5-3.2,6.8-6.2c0.6-1.2,0.9-2.6,1-3.9h-9.3c-0.8,0-1.3-0.1-1.5-0.1
				c-0.1-0.1-0.2-0.2-0.2-0.4c0-0.3,0.3-0.6,0.9-0.6h1.1h10.3V50.3z"/>
			<path class="st3" d="M133.9,46c0,0.6,0,1.2,0,2v1.1l0.1,12.3l6-0.1h4.3c0.7,0,1,0.2,1,0.7c0,0.3-0.2,0.6-0.6,0.6
				c-0.1,0-0.6,0-1.5,0h-20.1v-0.9v-5.9l0.1-6.4l-0.1-11.1h18.8c0.9,0,1.3,0,1.5,0c0.2,0.1,0.4,0.2,0.4,0.6c0,0.4-0.2,0.6-0.8,0.6
				h-0.1l-9-0.1l-0.1,5.5h1.9l6.3-0.1h1.3c0.4,0,0.8,0,1,0.1c0.1,0.1,0.2,0.2,0.2,0.6c0,0.4-0.3,0.7-1.1,0.7H142H133.9z"/>
		</g>
	</g>
</g>
</svg>
